<svg xmlns="http://www.w3.org/2000/svg" width="24" height="29.002" viewBox="0 0 24 29.002"><g transform="translate(-42.544 0)"><g transform="translate(42.544 0)"><path d="M44.311,179.141a1.7,1.7,0,0,0-1.252.515,1.684,1.684,0,0,0-.515,1.235v7.376a1.757,1.757,0,0,0,1.767,1.767,1.678,1.678,0,0,0,1.244-.515,1.72,1.72,0,0,0,.506-1.252V180.89a1.757,1.757,0,0,0-1.75-1.749Z" transform="translate(-42.544 -169.655)" fill="#fff"/><path d="M134.373,2.624,135.58.378a.227.227,0,0,0-.085-.343.234.234,0,0,0-.34.1L133.932,2.4a8.447,8.447,0,0,0-6.83,0L125.879.137a.235.235,0,0,0-.34-.1.227.227,0,0,0-.085.343l1.206,2.247a7.474,7.474,0,0,0-2.922,2.633,6.7,6.7,0,0,0-1.087,3.7h15.715a6.7,6.7,0,0,0-1.087-3.7A7.506,7.506,0,0,0,134.373,2.624ZM127.4,5.892a.634.634,0,0,1-.467.2.605.605,0,0,1-.459-.2.689.689,0,0,1,0-.943.607.607,0,0,1,.459-.2.636.636,0,0,1,.467.2.666.666,0,0,1,0,.943Zm7.161,0a.607.607,0,0,1-.459.2.633.633,0,0,1-.467-.2.667.667,0,0,1,0-.943.635.635,0,0,1,.467-.2.608.608,0,0,1,.459.2.689.689,0,0,1,0,.943Z" transform="translate(-118.517 0)" fill="#fff"/><path d="M123.971,196.874a1.829,1.829,0,0,0,.543,1.338,1.8,1.8,0,0,0,1.325.549H127.1l.017,3.894a1.713,1.713,0,0,0,.51,1.252,1.66,1.66,0,0,0,1.223.515,1.68,1.68,0,0,0,1.24-.515,1.713,1.713,0,0,0,.51-1.252v-3.894h2.344v3.894a1.713,1.713,0,0,0,.51,1.252,1.751,1.751,0,0,0,2.48,0,1.713,1.713,0,0,0,.51-1.252v-3.894h1.274a1.776,1.776,0,0,0,1.308-.549,1.829,1.829,0,0,0,.543-1.338V185.45H123.971Z" transform="translate(-119.769 -175.42)" fill="#fff"/><path d="M444.126,179.141a1.7,1.7,0,0,0-1.235.506,1.678,1.678,0,0,0-.514,1.243v7.376a1.7,1.7,0,0,0,.514,1.252,1.685,1.685,0,0,0,1.235.515,1.757,1.757,0,0,0,1.767-1.767V180.89a1.677,1.677,0,0,0-.515-1.243A1.72,1.72,0,0,0,444.126,179.141Z" transform="translate(-421.892 -169.655)" fill="#fff"/></g></g></svg>