<svg xmlns="http://www.w3.org/2000/svg" width="20.5" height="25" viewBox="0 0 20.5 25">
    <defs>
        <style>
            .cls-1{fill:#56596a}
        </style>
    </defs>
    <g id="_1301db8925fbcc717f110186a45c3f76" data-name="1301db8925fbcc717f110186a45c3f76" transform="translate(-97.116 -10)">
        <path id="Path_1218" d="M111.264 13.972a6.262 6.262 0 0 0 1.32-3.972 6.368 6.368 0 0 0-3.816 1.786 6.254 6.254 0 0 0-1.318 3.974 6.375 6.375 0 0 0 3.814-1.788zm2.941 9.309a5.38 5.38 0 0 1 2.865-4.684 6.251 6.251 0 0 0-4.635-2.638c-1.722-.018-4.109 1.151-4.8 1.143-.73-.008-2.254-1.107-4.294-1.158a5.85 5.85 0 0 0-5.554 3.74A13.873 13.873 0 0 0 98.8 30.536c1.628 3.094 3.086 4.357 4.508 4.372s3.114-1.036 4.45-1.02 2.572 1.1 3.951 1.112 2.811-1.082 3.862-2.607a25.287 25.287 0 0 0 2.025-3.906l.02-.153a5.387 5.387 0 0 1-3.412-5.054z" class="cls-1" data-name="Path 1218"/>
    </g>
</svg>
