<svg xmlns="http://www.w3.org/2000/svg" xmlns:xlink="http://www.w3.org/1999/xlink" width="480" height="270" viewBox="0 0 480 270"><defs><clipPath id="a"><rect width="120" height="132" fill="none"/></clipPath><clipPath id="c"><rect width="480" height="270"/></clipPath></defs><g id="b" clip-path="url(#c)"><rect width="480" height="270" fill="#3b3b3b"/><g transform="translate(180 68.957)" clip-path="url(#a)"><g transform="translate(19.196)"><path d="M355.1,300.076q-.1-5.028-.5-10.04a123.268,123.268,0,0,0-2.362-16.477,50.183,50.183,0,0,0-8.278-18.5,2.846,2.846,0,0,0-4.423-.346q-4.954,5.03-9.9,10.067a2.839,2.839,0,0,0-.089,4.036,50.584,50.584,0,0,1,5.87,7.882,59.685,59.685,0,0,1,6.232,14.568,82.978,82.978,0,0,1,2.372,11.649,65.568,65.568,0,0,1,.554,10.622,69.733,69.733,0,0,1-.9,9.155,2.6,2.6,0,1,1-5.125-.822,63.305,63.305,0,0,0,.842-11.228,64.37,64.37,0,0,0-1.145-10.917,59.287,59.287,0,0,0-2.689-9.88,3.107,3.107,0,0,0-1.354-1.8,2.585,2.585,0,0,0-3.651,3.233,49.25,49.25,0,0,1,2.235,7.324,56.865,56.865,0,0,1,1.095,6.8c.149,1.488.254,2.977.291,4.472a1.336,1.336,0,0,1-1.85,1.437,13.643,13.643,0,0,1-3.805-1.466,9.08,9.08,0,0,1-4.241-6.545c-.5-3.357-.973-6.718-1.455-10.078-.232-1.616-.469-3.232-.685-4.85a.57.57,0,0,0-.361-.491c-4.455-2.231-8.915-4.455-13.357-6.712a9.07,9.07,0,0,1-5.071-6.89,9.181,9.181,0,0,1,4.91-9.7c4.5-2.254,9.021-4.451,13.536-6.667a.627.627,0,0,0,.4-.537c.511-3.531,1.041-7.06,1.566-10.589.241-1.616.428-3.242.734-4.846a9.207,9.207,0,0,1,7.633-7.29,8.96,8.96,0,0,1,8.084,2.665c3.53,3.572,7.007,7.2,10.5,10.8a.686.686,0,0,0,.7.229c4.975-.854,9.951-1.71,14.932-2.532a9.294,9.294,0,0,1,10.545,7.552,9.547,9.547,0,0,1-1.065,6.26c-2.318,4.36-4.615,8.731-6.926,13.095a.476.476,0,0,0,0,.51c2.326,4.435,4.659,8.866,6.958,13.315a9.284,9.284,0,0,1-3.534,12.43,3.241,3.241,0,0,0-1.641,2.975c0,1.6,0,3.2-.027,4.8-.064,3.317-.237,6.629-.549,9.932a2.59,2.59,0,0,1-2.925,2.358,2.617,2.617,0,0,1-2.23-2.906c.187-2.012.3-4.029.4-6.047.155-3.245.187-6.493.125-9.739-.075-3.923-.137-7.847-.371-11.765-.051-.862-.131-1.723-.191-2.585a2.591,2.591,0,1,0-5.169.367c.246,2.957.358,5.92.433,8.886.09,3.55.168,7.1.114,10.651a2.593,2.593,0,0,1-5.184.1c-.019-1.764,0-3.528-.005-5.292Z" transform="translate(-303.225 -234.52)" fill="#d6d6d6"/><path d="M478.338,497.994c-.172,1.919-.311,4.014-.549,6.1a71.975,71.975,0,0,1-1.854,10.107,2.59,2.59,0,0,1-5.06-.1,2.593,2.593,0,0,1,.055-1.213,62.1,62.1,0,0,0,1.749-9.554c.217-1.971.319-3.952.531-5.923a2.531,2.531,0,0,1,2.837-2.327A2.627,2.627,0,0,1,478.338,497.994Z" transform="translate(-421.902 -418.975)" fill="#d6d6d6"/></g><g transform="translate(0 104.396)"><path d="M458.227,599.4q0-4.08,0-8.159a2.51,2.51,0,0,1,1.815-2.511,2.468,2.468,0,0,1,3.151,2.332c.018,1.36,0,2.72,0,4.08q0,5.8.009,11.606a4.333,4.333,0,0,0,8.611.793,17.21,17.21,0,0,0,.061-2.458c-.009-2.122.058-4.243.081-6.364a2.515,2.515,0,0,1,2.3-2.6,2.457,2.457,0,0,1,2.645,2.143,14.312,14.312,0,0,0,4.5,8.266,16.679,16.679,0,0,0,9.705,4.622,15.308,15.308,0,0,0,10.723-2.755A25.432,25.432,0,0,0,509.1,600.4c.587-.959,1.105-1.956,1.627-2.952a2.472,2.472,0,0,1,4.6.543,2.342,2.342,0,0,1-.165,1.676,35.264,35.264,0,0,1-7.548,10.49,22.035,22.035,0,0,1-10.713,5.663,20.448,20.448,0,0,1-12.471-1.4A22.163,22.163,0,0,1,476.872,609c-.059-.065-.1-.189-.208-.159s-.073.16-.1.246a9.289,9.289,0,0,1-17.162,2.237,8.787,8.787,0,0,1-1.138-4.228" transform="translate(-395.411 -588.631)" fill="#d6d6d6"/><path d="M255.7,593.651c.792.716,1.587,1.386,2.322,2.123a15.929,15.929,0,0,1,4.053,6.245,4.036,4.036,0,0,1,.191.675c.047.323.179.436.524.424.887-.031,1.776-.006,2.664-.011a2.97,2.97,0,0,0,2.993-3.02,13.588,13.588,0,0,1,.033-1.79,2.468,2.468,0,0,1,4.909.126,10.834,10.834,0,0,1-.345,4.107,7.9,7.9,0,0,1-6.858,5.512c-1.12.1-2.242.035-3.363.041-.3,0-.416.079-.483.382a9.571,9.571,0,0,1-3.887,6.015,9.734,9.734,0,0,1-4.567,1.642,17.545,17.545,0,0,1-2,.069q-3.033,0-6.066,0a2.49,2.49,0,1,1-.024-4.978c2.221-.012,4.442-.007,6.662,0a6.164,6.164,0,0,0,2.135-.326,4.507,4.507,0,0,0,2.909-3.55,7.486,7.486,0,0,0-1.566-6.4,19.718,19.718,0,0,0-5.661-4.866,30.473,30.473,0,0,0-5.3-2.542,2.486,2.486,0,0,1-1.168-3.97,2.322,2.322,0,0,1,1.762-.885c.058,0,.117,0,.175,0q12.553,0,25.105,0a2.444,2.444,0,0,1,2.474,2.015,2.48,2.48,0,0,1-2.179,2.928c-.267.022-.537.033-.805.033q-6.96,0-13.92,0Z" transform="translate(-243.229 -588.66)" fill="#d6d6d6"/><path d="M369.409,588.648c1.18,0,2.138,0,3.1,0a2.451,2.451,0,0,1,2.551,2.357,2.41,2.41,0,0,1-2.378,2.592c-1.857.053-3.716.026-5.574.033a2.881,2.881,0,0,0-2.589,1.464,2.93,2.93,0,0,0-.411,1.543c-.008,1.149-.014,2.3,0,3.448a2.965,2.965,0,1,0,5.93.008c.01-.574,0-1.149,0-1.724a2.473,2.473,0,1,1,4.945.023,14.966,14.966,0,0,1-.232,3.709,7.946,7.946,0,0,1-6.972,5.926,7.808,7.808,0,0,1-8.549-6.982,19.175,19.175,0,0,1,.152-6.3,7.81,7.81,0,0,1,6.642-6.025C367.222,588.559,368.428,588.7,369.409,588.648Z" transform="translate(-325.203 -588.636)" fill="#d6d6d6"/><path d="M402.1,595.634c-.024,1.323.062,3-.069,4.674-.356,4.554-1.826,8.623-5.219,11.821a14.638,14.638,0,0,1-8.185,3.909,7.744,7.744,0,0,1-2.337.1,2.452,2.452,0,0,1-2.069-2.638,2.482,2.482,0,0,1,2.518-2.3,9.643,9.643,0,0,0,6.245-2.314,11.356,11.356,0,0,0,3.647-6.108,16.639,16.639,0,0,0,.5-4.138c0-2.485-.005-4.97,0-7.454a2.484,2.484,0,1,1,4.967-.08C402.118,592.493,402.1,593.888,402.1,595.634Z" transform="translate(-343.021 -588.641)" fill="#d6d6d6"/><path d="M323.465,670.552c-1.811,0-3.622.008-5.433,0a2.468,2.468,0,0,1-2.448-2.215,2.493,2.493,0,0,1,1.818-2.667,2.823,2.823,0,0,1,.761-.1c3.563,0,7.126-.008,10.689,0a2.487,2.487,0,0,1,2.373,3.481A2.33,2.33,0,0,1,329,670.545C327.157,670.569,325.311,670.552,323.465,670.552Z" transform="translate(-294.431 -643.019)" fill="#d6d6d6"/><path d="M495.065,593.626c-1.659,0-3.318.006-4.976,0a2.481,2.481,0,0,1-.549-4.9,1.994,1.994,0,0,1,.45-.051c3.411,0,6.822-.01,10.233,0a2.415,2.415,0,0,1,2.356,2.059,2.454,2.454,0,0,1-2.4,2.892c-1.051.015-2.1,0-3.154,0Z" transform="translate(-416.203 -588.655)" fill="#d6d6d6"/></g></g></g></svg>