<svg xmlns="http://www.w3.org/2000/svg" id="Instagram-color" width="22" height="21.999" viewBox="0 0 22 21.999">
    <defs>
        <style>
            .cls-1{fill:#fff;fill-rule:evenodd}
        </style>
    </defs>
    <g id="Color-">
        <path id="Instagram" d="M511 160c-2.988 0-3.362.013-4.535.066a8.071 8.071 0 0 0-2.67.511 5.624 5.624 0 0 0-3.217 3.217 8.072 8.072 0 0 0-.511 2.67c-.054 1.173-.066 1.548-.066 4.535s.013 3.362.066 4.535a8.072 8.072 0 0 0 .511 2.67 5.625 5.625 0 0 0 3.217 3.217 8.073 8.073 0 0 0 2.67.511c1.173.053 1.548.066 4.535.066s3.362-.013 4.535-.066a8.074 8.074 0 0 0 2.67-.511 5.625 5.625 0 0 0 3.217-3.217 8.071 8.071 0 0 0 .511-2.67c.054-1.173.066-1.548.066-4.535s-.013-3.362-.066-4.535a8.071 8.071 0 0 0-.511-2.67 5.625 5.625 0 0 0-3.217-3.217 8.072 8.072 0 0 0-2.67-.511c-1.173-.053-1.548-.066-4.535-.066zm0 1.982c2.937 0 3.285.011 4.445.064a6.089 6.089 0 0 1 2.043.379 3.641 3.641 0 0 1 2.087 2.088 6.085 6.085 0 0 1 .379 2.043c.053 1.16.064 1.508.064 4.445s-.011 3.285-.064 4.445a6.084 6.084 0 0 1-.379 2.042 3.641 3.641 0 0 1-2.087 2.088 6.088 6.088 0 0 1-2.043.379c-1.16.053-1.508.064-4.445.064s-3.285-.011-4.445-.064a6.086 6.086 0 0 1-2.042-.379 3.644 3.644 0 0 1-2.088-2.088 6.089 6.089 0 0 1-.379-2.042c-.053-1.16-.064-1.508-.064-4.445s.011-3.285.064-4.445a6.09 6.09 0 0 1 .379-2.043 3.644 3.644 0 0 1 2.088-2.088 6.086 6.086 0 0 1 2.042-.379c1.16-.053 1.508-.064 4.445-.064zm0 3.369a5.648 5.648 0 1 0 5.648 5.649 5.649 5.649 0 0 0-5.648-5.649zm0 9.315a3.667 3.667 0 1 1 3.666-3.666 3.667 3.667 0 0 1-3.666 3.666zm7.192-9.538a1.32 1.32 0 1 1-1.32-1.32 1.32 1.32 0 0 1 1.32 1.32z" class="cls-1" transform="translate(-500 -160)"/>
    </g>
</svg>
