<svg xmlns="http://www.w3.org/2000/svg" xmlns:xlink="http://www.w3.org/1999/xlink" width="80" height="18.409" viewBox="0 0 80 18.409"><defs><clipPath id="a"><rect width="80" height="18.409" fill="none"/></clipPath></defs><g clip-path="url(#a)"><path d="M458.227,595.812q0-2.721,0-5.441a1.674,1.674,0,0,1,1.21-1.674,1.646,1.646,0,0,1,2.1,1.555c.012.907,0,1.814,0,2.721q0,3.87.006,7.74a2.89,2.89,0,0,0,5.743.529,11.483,11.483,0,0,0,.04-1.639c-.006-1.415.039-2.829.054-4.244a1.678,1.678,0,0,1,1.532-1.734,1.639,1.639,0,0,1,1.764,1.429,9.544,9.544,0,0,0,3,5.513,11.125,11.125,0,0,0,6.473,3.082,10.21,10.21,0,0,0,7.151-1.838,16.961,16.961,0,0,0,4.85-5.328c.392-.64.737-1.3,1.085-1.968a1.649,1.649,0,0,1,3.068.362,1.562,1.562,0,0,1-.11,1.118,23.519,23.519,0,0,1-5.034,7,14.7,14.7,0,0,1-7.145,3.777,13.638,13.638,0,0,1-8.317-.935,14.781,14.781,0,0,1-5.04-3.614c-.04-.043-.067-.126-.138-.106s-.049.107-.065.164a6.2,6.2,0,0,1-11.446,1.492,5.86,5.86,0,0,1-.759-2.819" transform="translate(-416.365 -588.631)" fill="#fff"/><path d="M251.548,591.993c.528.477,1.058.924,1.549,1.416a10.623,10.623,0,0,1,2.7,4.164,2.686,2.686,0,0,1,.128.45c.031.216.12.291.349.283.592-.021,1.185,0,1.777-.007a1.981,1.981,0,0,0,2-2.014,9.054,9.054,0,0,1,.022-1.194,1.646,1.646,0,0,1,3.274.084,7.225,7.225,0,0,1-.23,2.739,5.269,5.269,0,0,1-4.574,3.676c-.747.069-1.5.024-2.243.027-.2,0-.277.053-.322.255a6.384,6.384,0,0,1-2.592,4.012,6.492,6.492,0,0,1-3.046,1.095,11.719,11.719,0,0,1-1.331.046h-4.046a1.661,1.661,0,1,1-.016-3.32c1.481-.008,2.962,0,4.443,0a4.11,4.11,0,0,0,1.424-.217,3.006,3.006,0,0,0,1.94-2.368,4.992,4.992,0,0,0-1.044-4.266,13.151,13.151,0,0,0-3.776-3.245,20.318,20.318,0,0,0-3.536-1.7,1.658,1.658,0,0,1-.779-2.648,1.549,1.549,0,0,1,1.175-.59c.039,0,.078,0,.117,0q8.372,0,16.744,0a1.63,1.63,0,0,1,1.65,1.344,1.654,1.654,0,0,1-1.453,1.953c-.178.014-.358.022-.537.022q-4.642,0-9.284,0Z" transform="translate(-243.229 -588.664)" fill="#fff"/><path d="M365.956,588.645h2.065a1.635,1.635,0,0,1,1.7,1.572,1.607,1.607,0,0,1-1.586,1.728c-1.238.035-2.478.018-3.717.022a1.921,1.921,0,0,0-1.727.976,1.954,1.954,0,0,0-.274,1.029c-.005.766-.009,1.533,0,2.3a1.978,1.978,0,1,0,3.955.006c.007-.383,0-.767,0-1.15a1.649,1.649,0,1,1,3.3.015,9.976,9.976,0,0,1-.155,2.474,5.3,5.3,0,0,1-4.65,3.952,5.208,5.208,0,0,1-5.7-4.656,12.787,12.787,0,0,1,.1-4.2,5.209,5.209,0,0,1,4.43-4.018C364.5,588.586,365.3,588.677,365.956,588.645Z" transform="translate(-336.485 -588.637)" fill="#fff"/><path d="M396.147,593.306c-.016.883.042,2-.046,3.117a11.573,11.573,0,0,1-3.481,7.883,9.762,9.762,0,0,1-5.459,2.607,5.168,5.168,0,0,1-1.559.064,1.635,1.635,0,0,1-1.38-1.759,1.655,1.655,0,0,1,1.679-1.535,6.432,6.432,0,0,0,4.165-1.543,7.573,7.573,0,0,0,2.432-4.073,11.094,11.094,0,0,0,.331-2.759c0-1.657,0-3.314,0-4.971a1.657,1.657,0,1,1,3.313-.054C396.156,591.211,396.147,592.142,396.147,593.306Z" transform="translate(-356.755 -588.642)" fill="#fff"/><path d="M320.835,668.89c-1.208,0-2.415.005-3.623,0a1.646,1.646,0,0,1-1.633-1.477,1.663,1.663,0,0,1,1.212-1.778,1.882,1.882,0,0,1,.507-.068c2.376,0,4.753-.005,7.129,0a1.659,1.659,0,0,1,1.583,2.322,1.554,1.554,0,0,1-1.483,1C323.3,668.9,322.066,668.89,320.835,668.89Z" transform="translate(-301.477 -650.529)" fill="#fff"/><path d="M492.582,591.973c-1.106,0-2.213,0-3.319,0a1.655,1.655,0,0,1-.366-3.269,1.328,1.328,0,0,1,.3-.034c2.275,0,4.55-.007,6.825,0a1.611,1.611,0,0,1,1.571,1.373,1.637,1.637,0,0,1-1.6,1.928c-.7.01-1.4,0-2.1,0Z" transform="translate(-440.009 -588.659)" fill="#fff"/></g></svg>