<svg xmlns="http://www.w3.org/2000/svg" width="120" height="120" viewBox="0 0 120 120"><g transform="translate(11463 14377.999)"><path d="M117.044,191.79H100.956c-8.813,0-25.311-1.647-36.785-12.68C54.955,170.25,49,154.406,49,138.746V124.834c0-15.992,5.672-30.991,15.172-40.122,8.287-7.969,22.382-12.921,36.785-12.921h16.087c9.239,0,26.428,1.68,37.744,12.935C163.421,93.308,169,109.05,169,124.834v13.913c0,15.689-5.574,31.524-14.2,40.338C146.9,187.159,133.139,191.79,117.044,191.79Z" transform="translate(-11512 -14449.789)" fill="#222"/><g transform="translate(-11435.18 -14366)"><g transform="translate(5 11)" style="isolation:isolate"><g transform="translate(14.692 14.28)"><path d="M2,0H36.465a2,2,0,0,1,2,2V6.4a2,2,0,0,1-2,2H2a2,2,0,0,1-2-2V2A2,2,0,0,1,2,0Z" fill="#57c5d0"/></g><g transform="translate(1.192 19.32)"><rect width="13.996" height="8.4" rx="2" fill="#57c5d0"/></g><g transform="translate(13.848 13.44)"><path d="M1119.03,697.934h-35.09a2.529,2.529,0,0,1-2.531-2.52v-23.52a2.528,2.528,0,0,1,2.531-2.52h35.09a2.528,2.528,0,0,1,2.531,2.52v23.52A2.528,2.528,0,0,1,1119.03,697.934Zm-35.09-26.88a.843.843,0,0,0-.844.84v23.52a.843.843,0,0,0,.844.84h35.09a.843.843,0,0,0,.844-.84v-23.52a.842.842,0,0,0-.844-.84Z" transform="translate(-1081.409 -669.374)" fill="#fafafe"/></g><g transform="translate(0.987 19.262)"><rect width="52.144" height="3.918" transform="translate(0 0)" fill="#fafafe"/></g><g transform="translate(23.08 31.92)"><path d="M1093.617,693.054h-.422a.84.84,0,1,1,0-1.68h.422a.84.84,0,1,1,0,1.68Z" transform="translate(-1092.351 -691.374)" fill="#fafafe"/><g transform="translate(6.252)"><path d="M1108.1,693.054h-.833a.84.84,0,1,1,0-1.68h.833a.84.84,0,1,1,0,1.68Zm-6.664,0h-.833a.84.84,0,1,1,0-1.68h.833a.84.84,0,1,1,0,1.68Z" transform="translate(-1099.761 -691.374)" fill="#fafafe"/></g><g transform="translate(19.579)"><path d="M1116.822,693.054h-.422a.84.84,0,1,1,0-1.68h.422a.84.84,0,1,1,0,1.68Z" transform="translate(-1115.556 -691.374)" fill="#fafafe"/></g></g><g transform="translate(0)"><path d="M1079.688,681.934H1067.38a2.457,2.457,0,0,1-2.383-2.52v-23.52a2.457,2.457,0,0,1,2.383-2.52h35.388a2.457,2.457,0,0,1,2.383,2.52v11.76h-1.687v-11.76a.779.779,0,0,0-.7-.84H1067.38a.779.779,0,0,0-.7.84v23.52a.779.779,0,0,0,.7.84h12.309Z" transform="translate(-1064.997 -653.374)" fill="#fafafe"/></g></g><rect width="64" height="64" transform="translate(0.18)" fill="none"/></g></g></svg>