<svg xmlns="http://www.w3.org/2000/svg" width="120" height="120" viewBox="0 0 120 120"><g transform="translate(10533 14377.999)"><path d="M117.044,191.79H100.956c-8.813,0-25.311-1.647-36.785-12.68C54.955,170.25,49,154.406,49,138.746V124.834c0-15.992,5.672-30.991,15.172-40.122,8.287-7.969,22.382-12.921,36.785-12.921h16.087c9.239,0,26.428,1.68,37.744,12.935C163.421,93.308,169,109.05,169,124.834v13.913c0,15.689-5.574,31.524-14.2,40.338C146.9,187.159,133.139,191.79,117.044,191.79Z" transform="translate(-10582 -14449.789)" fill="#222"/><g transform="translate(-10505.097 -14366)"><g transform="translate(13 5)"><g transform="translate(0 8)"><path d="M296.386,977H268.614a5.064,5.064,0,0,1-5.114-5V932a1,1,0,0,1,1-1H270a1,1,0,0,1,0,2h-4.5v39a3.062,3.062,0,0,0,3.114,3H292.3a4.9,4.9,0,0,1-1.026-3V933H286a1,1,0,0,1,0-2h6.271a1,1,0,0,1,1,1v40a3.062,3.062,0,0,0,3.115,3,1,1,0,0,1,0,2Z" transform="translate(-263.5 -931)" fill="#fafafe"/></g><g transform="translate(27.771 36)"><path d="M296.386,977a1,1,0,0,1,0-2,3.062,3.062,0,0,0,3.114-3V961h-7.229a1,1,0,0,1,0-2H300.5a1,1,0,0,1,1,1v12A5.064,5.064,0,0,1,296.386,977Z" transform="translate(-291.271 -959)" fill="#fafafe"/></g><g transform="translate(5.5)"><circle cx="8" cy="8" r="8" transform="translate(1 1)" fill="#4ac5d0"/><path d="M278,941a9,9,0,1,1,9-9A9.01,9.01,0,0,1,278,941Zm0-16a7,7,0,1,0,7,7A7.008,7.008,0,0,0,278,925Z" transform="translate(-269 -923)" fill="#fafafe"/></g><g transform="translate(9.586 5.914)"><path d="M276.914,935.914a1,1,0,0,1-.707-.293l-2.828-2.828a1,1,0,0,1,1.414-1.414l2.121,2.121,4.293-4.293a1,1,0,0,1,1.414,1.414l-5,5A1,1,0,0,1,276.914,935.914Z" transform="translate(-273.086 -928.914)" fill="#fafafe"/></g><g transform="translate(5.5 24)"><path d="M287,949H270a1,1,0,0,1,0-2h17a1,1,0,0,1,0,2Z" transform="translate(-269 -947)" fill="#fafafe"/></g><g transform="translate(5.5 29)"><path d="M287,954H270a1,1,0,0,1,0-2h17a1,1,0,0,1,0,2Z" transform="translate(-269 -952)" fill="#fafafe"/></g><g transform="translate(5.5 34)"><path d="M287,959H270a1,1,0,0,1,0-2h17a1,1,0,0,1,0,2Z" transform="translate(-269 -957)" fill="#fafafe"/></g><g transform="translate(10.5 39)"><path d="M287,964H275a1,1,0,0,1,0-2h12a1,1,0,0,1,0,2Z" transform="translate(-274 -962)" fill="#fafafe"/></g></g><rect width="64" height="64" transform="translate(0.097)" fill="none"/></g></g></svg>