<svg xmlns="http://www.w3.org/2000/svg" width="120" height="120" viewBox="0 0 120 120"><g transform="translate(10688 14610.999)"><path d="M117.044,191.79H100.956c-8.813,0-25.311-1.647-36.785-12.68C54.955,170.25,49,154.406,49,138.746V124.834c0-15.992,5.672-30.991,15.172-40.122,8.287-7.969,22.382-12.921,36.785-12.921h16.087c9.239,0,26.428,1.68,37.744,12.935C163.421,93.308,169,109.05,169,124.834v13.913c0,15.689-5.574,31.524-14.2,40.338C146.9,187.159,133.139,191.79,117.044,191.79Z" transform="translate(-10737 -14682.789)" fill="#fff"/><g transform="translate(-11962 -15400)"><rect width="64" height="64" transform="translate(1302 801)" fill="none"/><g transform="translate(1312.502 849.835)"><path d="M591.516,955.165H553.481A2.515,2.515,0,0,1,551,952.623v-5.082A2.514,2.514,0,0,1,553.481,945h38.035A2.514,2.514,0,0,1,594,947.541v5.082A2.515,2.515,0,0,1,591.516,955.165Zm-38.035-8.471a.838.838,0,0,0-.827.847v5.082a.838.838,0,0,0,.827.847h38.035a.838.838,0,0,0,.827-.847v-5.082a.839.839,0,0,0-.827-.847Z" transform="translate(-551 -945)" fill="#5439ac"/></g><g transform="translate(1315.838 816.778)"><path d="M590.5,940.73H555.826a.816.816,0,0,1-.626-.295.865.865,0,0,1-.191-.679l4.472-30.236a4.158,4.158,0,0,1,4.068-3.52h19.225a4.152,4.152,0,0,1,4.065,3.5l0,.02,4.472,30.236a.865.865,0,0,1-.191.679A.815.815,0,0,1,590.5,940.73Zm-33.713-1.694h32.753l-4.327-29.251a2.491,2.491,0,0,0-2.437-2.091H563.549a2.491,2.491,0,0,0-2.439,2.1Z" transform="translate(-555 -906)" fill="#5439ac"/></g><g transform="translate(1324.98 826.447)"><g transform="translate(0)"><path d="M568.748,925.827l-.137-.109,2.378-2.752a1.819,1.819,0,0,0,.428-1.412l-.314-2.567a1.78,1.78,0,0,0-1.98-1.567l-2.151.271a.893.893,0,0,0-.774.95,17.935,17.935,0,0,0,2.152,7.312C568.48,925.906,568.613,925.865,568.748,925.827Z" transform="translate(-566.197 -917.406)" fill="#57c5d0"/></g><g transform="translate(11.834 11.527)"><path d="M588.028,932.6a1.782,1.782,0,0,0-1.98-1.567l-2.528.319a1.77,1.77,0,0,0-1.243.767l-1.89,2.788a5.6,5.6,0,0,1,.073.651,17.193,17.193,0,0,0,7.1.224.9.9,0,0,0,.729-1Z" transform="translate(-580.388 -931.015)" fill="#57c5d0"/></g></g><g transform="translate(1324.145 825.6)"><path d="M582.017,934.655a16.682,16.682,0,0,1-10.249-3.389l-.3-.241a17.808,17.808,0,0,1-6.265-12.48,1.737,1.737,0,0,1,1.5-1.847l2.151-.271a2.621,2.621,0,0,1,2.911,2.3l.314,2.567a2.675,2.675,0,0,1-.629,2.075l-2.218,2.567a14.737,14.737,0,0,0,3.27,3.759l.282.224a14.492,14.492,0,0,0,4.376,2.295l1.91-2.817a2.6,2.6,0,0,1,1.826-1.127l2.528-.319a2.62,2.62,0,0,1,2.911,2.3l.266,2.182a1.747,1.747,0,0,1-1.409,1.938A17.913,17.913,0,0,1,582.017,934.655Zm-3.135-1.993a16.5,16.5,0,0,0,6.014.047l-.218-2.243a.954.954,0,0,0-1.05-.831l-2.527.319a.942.942,0,0,0-.659.407ZM569.177,918.1a1.069,1.069,0,0,0-.116.007l-2.151.271a16.55,16.55,0,0,0,1.476,5.97l1.811-2.095a.967.967,0,0,0,.227-.748l-.314-2.567A.946.946,0,0,0,569.177,918.1Z" transform="translate(-565.197 -916.407)" fill="#5439ac"/></g><g transform="translate(1310 806)"><path d="M548.834,904.577a.821.821,0,0,1-.274-.047.85.85,0,0,1-.513-1.079,16.729,16.729,0,0,1,3.81-6.248,14.719,14.719,0,0,1,7.657-4.186.833.833,0,0,1,.979.667.846.846,0,0,1-.657.994,13.07,13.07,0,0,0-6.8,3.719,15.036,15.036,0,0,0-3.418,5.611A.835.835,0,0,1,548.834,904.577Z" transform="translate(-548 -892.999)" fill="#5439ac"/></g><g transform="translate(1313.614 809.624)"><path d="M553.167,905.56a.82.82,0,0,1-.274-.047.851.851,0,0,1-.513-1.078,11.441,11.441,0,0,1,2.605-4.272,10.087,10.087,0,0,1,5.249-2.869.832.832,0,0,1,.979.668.847.847,0,0,1-.657.994,8.446,8.446,0,0,0-4.388,2.4,9.722,9.722,0,0,0-2.213,3.635A.836.836,0,0,1,553.167,905.56Z" transform="translate(-552.333 -897.277)" fill="#5439ac"/></g><g transform="translate(1317.228 813.248)"><path d="M557.5,906.544a.8.8,0,0,1-.275-.048.849.849,0,0,1-.512-1.078,6.153,6.153,0,0,1,1.4-2.295,5.456,5.456,0,0,1,2.84-1.552.836.836,0,0,1,.979.668.846.846,0,0,1-.657.994,3.8,3.8,0,0,0-1.978,1.083,4.449,4.449,0,0,0-1.01,1.659A.833.833,0,0,1,557.5,906.544Z" transform="translate(-556.667 -901.555)" fill="#5439ac"/></g><g transform="translate(1345.49 806)"><path d="M602.676,904.577a.835.835,0,0,1-.787-.568,15.038,15.038,0,0,0-3.418-5.611,13.07,13.07,0,0,0-6.8-3.719.846.846,0,0,1-.657-.994.833.833,0,0,1,.979-.667,14.72,14.72,0,0,1,7.658,4.186,16.728,16.728,0,0,1,3.81,6.248.85.85,0,0,1-.513,1.079A.821.821,0,0,1,602.676,904.577Z" transform="translate(-591 -892.999)" fill="#5439ac"/></g><g transform="translate(1345.49 809.624)"><path d="M599.062,905.56a.836.836,0,0,1-.788-.568,9.723,9.723,0,0,0-2.213-3.635,8.445,8.445,0,0,0-4.388-2.4.847.847,0,0,1-.657-.994.833.833,0,0,1,.979-.668,10.087,10.087,0,0,1,5.249,2.869,11.441,11.441,0,0,1,2.605,4.272.851.851,0,0,1-.513,1.078A.823.823,0,0,1,599.062,905.56Z" transform="translate(-591 -897.277)" fill="#5439ac"/></g><g transform="translate(1345.49 813.248)"><path d="M595.448,906.544a.833.833,0,0,1-.786-.568,4.458,4.458,0,0,0-1.009-1.659,3.8,3.8,0,0,0-1.979-1.083.846.846,0,0,1-.657-.994.836.836,0,0,1,.979-.668,5.452,5.452,0,0,1,2.84,1.553,6.143,6.143,0,0,1,1.4,2.294.849.849,0,0,1-.512,1.078A.8.8,0,0,1,595.448,906.544Z" transform="translate(-591 -901.556)" fill="#5439ac"/></g></g></g></svg>