<svg xmlns="http://www.w3.org/2000/svg" width="120" height="120" viewBox="0 0 120 120"><g transform="translate(11773 14377.999)"><path d="M117.044,191.79H100.956c-8.813,0-25.311-1.647-36.785-12.68C54.955,170.25,49,154.406,49,138.746V124.834c0-15.992,5.672-30.991,15.172-40.122,8.287-7.969,22.382-12.921,36.785-12.921h16.087c9.239,0,26.428,1.68,37.744,12.935C163.421,93.308,169,109.05,169,124.834v13.913c0,15.689-5.574,31.524-14.2,40.338C146.9,187.159,133.139,191.79,117.044,191.79Z" transform="translate(-11822 -14449.789)" fill="#222"/><g transform="translate(-11744.917 -14366)"><g transform="translate(6 5)" style="isolation:isolate"><g transform="translate(21.233 14.692)"><path d="M0,0H10.4V38.465H0Z" fill="#57c5d0"/></g><g transform="translate(3.9 24.618)"><path d="M718.333,829.559H678.466a2.5,2.5,0,0,1-2.6-2.382v-27h17.377v1.688H677.6v25.312a.8.8,0,0,0,.867.694h39.867a.8.8,0,0,0,.867-.694V801.865H703.577v-1.687h17.356v27A2.5,2.5,0,0,1,718.333,829.559Z" transform="translate(-675.866 -800.177)" fill="#fafafe"/></g><g transform="translate(0 13.848)"><path d="M720.8,799.87H702.884v-1.687H720.8a.777.777,0,0,0,.836-.7v-7.693a.777.777,0,0,0-.836-.7H673.935a.776.776,0,0,0-.835.7v7.693a.776.776,0,0,0,.835.7h18.8v1.688h-18.8a2.484,2.484,0,0,1-2.569-2.383v-7.693a2.484,2.484,0,0,1,2.569-2.383H720.8a2.484,2.484,0,0,1,2.57,2.383v7.693A2.484,2.484,0,0,1,720.8,799.87Z" transform="translate(-671.366 -787.412)" fill="#fafafe"/></g><g transform="translate(20.367 13.848)"><path d="M707,827.564H694.866V787.412H707Zm-10.4-1.687h8.667V789.1H696.6Z" transform="translate(-694.866 -787.412)" fill="#fafafe"/></g><g transform="translate(10.175)"><path d="M697.758,786.007a16.173,16.173,0,0,1-2.485-.252c-5.645-.91-10.52-1.7-11.837-5.148a7.92,7.92,0,0,1,5.876-9.583c3.747-.386,7.623,4,9.637,8.236.668,1.4,2.054,4.828.5,6.273h0A2.28,2.28,0,0,1,697.758,786.007Zm-7.992-13.319a2.677,2.677,0,0,0-.274.014,5.373,5.373,0,0,0-3.567,2.662,5.492,5.492,0,0,0-.864,4.656c.967,2.535,5.382,3.246,10.5,4.07a8.185,8.185,0,0,0,2.725.189c.248-.326.33-1.712-.906-4.311C695.639,776.314,692.37,772.688,689.766,772.688Z" transform="translate(-683.107 -771)" fill="#fafafe"/></g><g transform="translate(25.64 0.001)"><path d="M703.35,786.007a2.276,2.276,0,0,1-1.689-.474h0c-1.554-1.445-.168-4.868.5-6.273,2.012-4.235,5.89-8.616,9.636-8.236a7.92,7.92,0,0,1,5.876,9.583c-1.317,3.453-6.191,4.238-11.836,5.148A16.171,16.171,0,0,1,703.35,786.007Zm-.523-1.728a8.186,8.186,0,0,0,2.726-.189c5.112-.824,9.527-1.536,10.494-4.07a5.489,5.489,0,0,0-.864-4.656,5.373,5.373,0,0,0-3.567-2.662c-2.646-.257-6.084,3.483-7.883,7.266C702.5,782.567,702.579,783.953,702.826,784.279Z" transform="translate(-700.95 -771.001)" fill="#fafafe"/></g></g><rect width="64" height="64" transform="translate(-0.083)" fill="none"/></g></g></svg>