<svg xmlns="http://www.w3.org/2000/svg" width="22" height="20.5" viewBox="0 0 22 20.5">
    <defs>
        <style>
            .cls-1{fill:#fff}
        </style>
    </defs>
    <g id="telegram-logo" transform="translate(0 -9.997)">
        <path id="Path_1444" d="M17.711 30.5a.847.847 0 0 1-.489-.156l-5.532-3.912-2.967 2.224a.843.843 0 0 1-.8.118.894.894 0 0 1-.548-.622L5.883 22.27.56 20.15a.922.922 0 0 1-.011-1.69l20.24-8.39a.842.842 0 0 1 .287-.07.872.872 0 0 1 .105 0 .852.852 0 0 1 .558.258.755.755 0 0 1 .046.051.924.924 0 0 1 .213.531.958.958 0 0 1 0 .145.916.916 0 0 1-.014.1L18.566 29.76a.9.9 0 0 1-.522.668.84.84 0 0 1-.333.072zm-5.535-5.915l4.924 3.48 2.658-14.53-9.6 9.624 1.992 1.408zm-4.1-.774l.66 2.6 1.421-1.066-1.863-1.313a.886.886 0 0 1-.22-.223zm-4.809-4.526l3.655 1.456a.9.9 0 0 1 .531.616l.464 1.83a.923.923 0 0 1 .262-.559l9.148-9.17z" class="cls-1" data-name="Path 1444"/>
    </g>
</svg>
